<svg width="40" height="40" viewBox="0 0 40 40" fill="none" xmlns="http://www.w3.org/2000/svg">
<path d="M8.53326 8.53317L8.17801 8.18127L8.18222 8.17712L8.53326 8.53317ZM8.53326 31.4665L8.18136 31.8218L8.17721 31.8175L8.53326 31.4665ZM31.4666 31.4665L31.8218 31.8184L31.8176 31.8226L31.4666 31.4665ZM31.4666 8.53317L31.8185 8.17792L31.8226 8.18213L31.4666 8.53317ZM11.1644 14.7821L10.6645 14.7923C10.6617 14.658 10.7132 14.5281 10.8072 14.4322C10.9012 14.3362 11.03 14.2821 11.1644 14.2821V14.7821ZM21.2088 25.8754H21.7088C21.7088 26.1515 21.485 26.3754 21.2088 26.3754V25.8754ZM21.2088 21.911H20.7088C20.7088 21.7697 20.7685 21.6351 20.8732 21.5403C20.9779 21.4455 21.1178 21.3994 21.2584 21.4134L21.2088 21.911ZM25.8044 25.8754V26.3754C25.587 26.3754 25.3946 26.235 25.3282 26.0281L25.8044 25.8754ZM28.9599 25.8754L29.4426 25.7449C29.4832 25.8951 29.4516 26.0557 29.3569 26.1793C29.2623 26.3029 29.1156 26.3754 28.9599 26.3754V25.8754ZM24.3999 20.311L24.1771 20.7586C24.0141 20.6774 23.9081 20.5141 23.9004 20.3322C23.8926 20.1503 23.9844 19.9786 24.1399 19.8839L24.3999 20.311ZM26.9238 17.9479L27.3328 18.2354L26.9238 17.9479ZM28.2933 14.7732V14.2732C28.4434 14.2732 28.5857 14.3407 28.6806 14.457C28.7756 14.5734 28.8132 14.7262 28.7831 14.8734L28.2933 14.7732ZM25.431 14.7732L24.9498 14.6374C25.0106 14.4219 25.2072 14.2732 25.431 14.2732V14.7732ZM21.2088 19.1643L21.2618 19.6615C21.1208 19.6765 20.98 19.6309 20.8745 19.5361C20.769 19.4413 20.7088 19.3061 20.7088 19.1643H21.2088ZM21.2088 14.7821V14.2821C21.485 14.2821 21.7088 14.5059 21.7088 14.7821H21.2088ZM18.3377 14.7821H17.8377C17.8377 14.5059 18.0616 14.2821 18.3377 14.2821V14.7821ZM18.3377 22.4621H18.8377C18.8377 22.616 18.7668 22.7614 18.6454 22.8562C18.524 22.9509 18.3658 22.9845 18.2164 22.9471L18.3377 22.4621ZM14.2221 14.7821V14.2821C14.4945 14.2821 14.7168 14.5001 14.7221 14.7724L14.2221 14.7821ZM6.16659 19.4665C6.16659 16.4628 6.16554 14.1611 6.40434 12.3768C6.64507 10.5783 7.13761 9.23163 8.17803 8.1813L8.88848 8.88504C8.06224 9.71916 7.62144 10.8214 7.3955 12.5095C7.16764 14.212 7.16659 16.4347 7.16659 19.4665H6.16659ZM6.16659 20.5332V19.4665H7.16659V20.5332H6.16659ZM8.17721 31.8175C7.13757 30.7631 6.64508 29.4148 6.40434 27.6162C6.16554 25.832 6.16659 23.5325 6.16659 20.5332H7.16659C7.16659 23.5605 7.16764 25.781 7.3955 27.4835C7.62143 29.1715 8.06228 30.2766 8.88931 31.1155L8.17721 31.8175ZM19.4666 33.8332C16.4629 33.8332 14.1611 33.8342 12.3769 33.5954C10.5783 33.3547 9.23171 32.8622 8.18138 31.8217L8.88513 31.1113C9.71924 31.9375 10.8215 32.3783 12.5096 32.6043C14.212 32.8321 16.4347 32.8332 19.4666 32.8332V33.8332ZM20.5333 33.8332H19.4666V32.8332H20.5333V33.8332ZM31.8176 31.8226C30.7631 32.8622 29.4149 33.3547 27.6163 33.5954C25.832 33.8342 23.5326 33.8332 20.5333 33.8332V32.8332C23.5606 32.8332 25.7811 32.8321 27.4836 32.6043C29.1716 32.3783 30.2767 31.9375 31.1156 31.1105L31.8176 31.8226ZM33.8333 20.5332C33.8333 23.5369 33.8343 25.8386 33.5955 27.6228C33.3548 29.4214 32.8622 30.768 31.8218 31.8184L31.1114 31.1146C31.9376 30.2805 32.3784 29.1783 32.6043 27.4902C32.8322 25.7877 32.8333 23.565 32.8333 20.5332H33.8333ZM33.8333 19.4665V20.5332H32.8333V19.4665H33.8333ZM31.8226 8.18213C32.8623 9.23662 33.3548 10.5848 33.5955 12.3835C33.8343 14.1677 33.8333 16.4672 33.8333 19.4665H32.8333C32.8333 16.4391 32.8322 14.2186 32.6043 12.5162C32.3784 10.8282 31.9376 9.72305 31.1105 8.88421L31.8226 8.18213ZM20.5333 6.1665C23.537 6.1665 25.8387 6.16545 27.6229 6.40426C29.4215 6.64499 30.7681 7.13752 31.8185 8.17795L31.1147 8.8884C30.2806 8.06215 29.1783 7.62136 27.4903 7.39542C25.7878 7.16756 23.5651 7.1665 20.5333 7.1665V6.1665ZM19.4666 6.1665H20.5333V7.1665H19.4666V6.1665ZM8.18222 8.17712C9.23671 7.13748 10.5849 6.645 12.3836 6.40426C14.1678 6.16545 16.4673 6.1665 19.4666 6.1665V7.1665C16.4392 7.1665 14.2187 7.16756 12.5163 7.39542C10.8283 7.62135 9.72314 8.06219 8.8843 8.88922L8.18222 8.17712ZM20.8533 26.3754C17.691 26.3754 15.1571 25.2885 13.4035 23.2553C11.6599 21.2336 10.7371 18.334 10.6645 14.7923L11.6643 14.7718C11.7338 18.1635 12.6155 20.8105 14.1608 22.6022C15.6961 24.3823 17.9355 25.3754 20.8533 25.3754V26.3754ZM20.8621 26.3754H20.8533V25.3754H20.8621V26.3754ZM21.2088 26.3754H20.8621V25.3754H21.2088V26.3754ZM21.7088 21.911V25.8754H20.7088V21.911H21.7088ZM25.3282 26.0281C24.7014 24.0733 23.1555 22.6073 21.1593 22.4085L21.2584 21.4134C23.7243 21.659 25.5562 23.4642 26.2805 25.7227L25.3282 26.0281ZM28.9599 26.3754H25.8044V25.3754H28.9599V26.3754ZM27.6632 22.2874C28.494 23.3012 29.1005 24.4796 29.4426 25.7449L28.4773 26.0059C28.172 24.877 27.631 23.8257 26.8898 22.9212L27.6632 22.2874ZM24.6227 19.8633C25.7961 20.4474 26.8324 21.2735 27.6632 22.2874L26.8898 22.9212C26.1486 22.0167 25.224 21.2796 24.1771 20.7586L24.6227 19.8633ZM27.3328 18.2354C26.6234 19.2445 25.7135 20.0964 24.66 20.738L24.1399 19.8839C25.0759 19.3139 25.8844 18.5569 26.5148 17.6603L27.3328 18.2354ZM28.7831 14.8734C28.536 16.0818 28.0422 17.2264 27.3328 18.2354L26.5148 17.6603C27.1451 16.7637 27.5838 15.7468 27.8034 14.673L28.7831 14.8734ZM25.431 14.2732H28.2933V15.2732H25.431V14.2732ZM21.1558 18.6671C21.8712 18.5908 22.6687 18.1306 23.3807 17.381C24.0862 16.6384 24.6617 15.6581 24.9498 14.6374L25.9122 14.909C25.5781 16.0927 24.9181 17.2146 24.1058 18.0698C23.3 18.918 22.2975 19.5511 21.2618 19.6615L21.1558 18.6671ZM21.7088 14.7821V19.1643H20.7088V14.7821H21.7088ZM18.3377 14.2821H21.2088V15.2821H18.3377V14.2821ZM17.8377 22.4621V14.7821H18.8377V22.4621H17.8377ZM14.7221 14.7724C14.8172 19.7191 16.9753 21.6061 18.459 21.977L18.2164 22.9471C16.1445 22.4292 13.8227 20.0139 13.7222 14.7917L14.7221 14.7724ZM11.1644 14.2821H14.2221V15.2821H11.1644V14.2821Z" fill="white"/>
</svg>
