<svg width="40" height="40" viewBox="0 0 40 40" fill="none" xmlns="http://www.w3.org/2000/svg">
<path fill-rule="evenodd" clip-rule="evenodd" d="M16.6937 14.3553C16.4518 13.8039 16.1832 13.7905 15.9547 13.7905C15.753 13.7771 15.5372 13.7771 15.3087 13.7771C15.0944 13.7771 14.7313 13.8574 14.4225 14.1938C14.1129 14.5294 13.2668 15.3227 13.2668 16.9487C13.2668 18.5755 14.4492 20.1479 14.6107 20.363C14.7714 20.5781 16.8953 24.0183 20.256 25.3497C23.0511 26.4518 23.616 26.2368 24.221 26.169C24.8252 26.102 26.17 25.3765 26.452 24.5966C26.7206 23.8309 26.7206 23.1589 26.6403 23.0242C26.5599 22.8902 26.3307 22.8091 26.0085 22.6342C25.6721 22.4735 24.0595 21.6668 23.7507 21.5589C23.4411 21.4517 23.226 21.3982 23.0109 21.7204C22.7959 22.0568 22.1641 22.7957 21.9632 23.0108C21.7741 23.2258 21.5732 23.2526 21.2502 23.0911C20.9146 22.9304 19.8527 22.5806 18.5891 21.4517C17.6075 20.5773 16.9489 19.4893 16.7472 19.1671C16.5597 18.8308 16.7204 18.6559 16.8953 18.4944C17.0434 18.3471 17.2317 18.1052 17.3932 17.9169C17.5539 17.7279 17.6075 17.5805 17.7288 17.3655C17.8359 17.1504 17.7824 16.9487 17.702 16.788C17.6209 16.6399 16.9899 15.0139 16.6937 14.3553Z" stroke="white" stroke-linejoin="round"/>
</svg>
