<svg width="19" height="20" viewBox="0 0 19 20" fill="none" xmlns="http://www.w3.org/2000/svg">
<path fill-rule="evenodd" clip-rule="evenodd" d="M7.87444 6.37137C7.71897 6.01687 7.54627 6.00826 7.39941 6.00826C7.26976 5.99965 7.131 5.99965 6.98413 5.99965C6.84638 5.99965 6.61291 6.05131 6.41439 6.26755C6.21536 6.4833 5.67145 6.99328 5.67145 8.03856C5.67145 9.08435 6.43161 10.0952 6.53543 10.2335C6.63874 10.3717 8.00409 12.5833 10.1645 13.4392C11.9614 14.1477 12.3245 14.0094 12.7134 13.9659C13.1019 13.9228 13.9664 13.4564 14.1477 12.955C14.3204 12.4628 14.3204 12.0308 14.2687 11.9442C14.217 11.8581 14.0697 11.8059 13.8625 11.6935C13.6463 11.5902 12.6096 11.0716 12.4111 11.0022C12.2121 10.9333 12.0738 10.8989 11.9356 11.106C11.7973 11.3223 11.3911 11.7973 11.262 11.9356C11.1404 12.0738 11.0113 12.0911 10.8037 11.9872C10.5879 11.8839 9.90525 11.6591 9.09293 10.9333C8.46191 10.3712 8.03853 9.67182 7.90888 9.46468C7.78835 9.24844 7.89166 9.13601 8.00409 9.03219C8.0993 8.93748 8.22034 8.78201 8.32416 8.66097C8.42747 8.53943 8.46191 8.44472 8.5399 8.30647C8.60878 8.16821 8.57434 8.03856 8.52268 7.93525C8.47052 7.84004 8.06486 6.79475 7.87444 6.37137Z" stroke="#3E3335" stroke-linejoin="round"/>
</svg>
