<svg width="40" height="40" viewBox="0 0 40 40" fill="none" xmlns="http://www.w3.org/2000/svg">
<path d="M8.08224 13.6594C8.1446 12.2967 8.35797 11.4179 8.64651 10.6719L8.65039 10.6616C8.93633 9.90244 9.38426 9.21475 9.963 8.64636L9.97112 8.63838L9.9791 8.63026C10.548 8.05077 11.2359 7.60328 11.9943 7.3181L12.0074 7.3131C12.7517 7.02365 13.6288 6.81108 14.9926 6.74873M8.08224 13.6594C8.01668 15.1153 7.99998 15.5666 7.99998 19.3415C7.99998 23.1174 8.01577 23.5676 8.08221 25.0239M8.08224 13.6594L8.08224 14.0266M8.65158 28.0222C8.93676 28.7806 9.38425 29.4686 9.96373 30.0374L9.97184 30.0454L9.9798 30.0535C10.5482 30.6322 11.2359 31.0802 11.9951 31.3661L12.0064 31.3704C12.7514 31.6593 13.6289 31.872 14.9926 31.9343M8.65158 28.0222L8.64657 28.0091C8.35713 27.2648 8.14456 26.3877 8.08221 25.0239M8.65158 28.0222L8.63448 27.9321M8.08221 25.0239L8.10454 25.1415M8.08221 25.0239L8.08221 24.6557M8.63448 27.9321L8.10454 25.1415M8.63448 27.9321C8.40941 27.3375 8.17764 26.5079 8.10454 25.1415M8.63448 27.9321C8.64238 27.953 8.65026 27.9736 8.65813 27.9939C8.94357 28.7633 9.39582 29.4601 9.9824 30.034C10.5561 30.6205 11.2526 31.0727 12.0218 31.3581C12.6391 31.5986 13.509 31.8498 14.9924 31.9178C16.4895 31.9859 16.952 31.9998 20.675 31.9998C24.398 31.9998 24.8609 31.9859 26.358 31.9178C27.8432 31.8497 28.7121 31.597 29.3272 31.3584C30.0969 31.0732 30.7937 30.6208 31.3676 30.034C31.954 29.4603 32.4062 28.7638 32.6916 27.9947C32.932 27.3774 33.1833 26.5075 33.2513 25.0241C33.3194 23.527 33.3333 23.0636 33.3333 19.3415C33.3333 15.6195 33.3194 15.1556 33.2513 13.6586C33.1828 12.1655 32.9279 11.2954 32.6882 10.6797C32.3748 9.8708 31.9774 9.259 31.3666 8.6482C30.7571 8.03982 30.1469 7.64223 29.3374 7.32856C28.7195 7.08699 27.8488 6.83358 26.358 6.76526C26.2283 6.75936 26.1064 6.75386 25.9895 6.74875M8.10454 25.1415C8.10247 25.1029 8.10054 25.0639 8.09873 25.0245C8.09282 24.8947 8.08733 24.7727 8.08221 24.6557M14.9926 6.74873C16.4489 6.68229 16.9001 6.6665 20.675 6.6665C24.4499 6.6665 24.9008 6.68319 26.3567 6.74875M14.9926 6.74873L15.3608 6.74874M26.3567 6.74875L25.9895 6.74875M26.3567 6.74875C27.7196 6.81109 28.5986 7.02442 29.3447 7.31299L29.355 7.31692C30.1141 7.60286 30.8018 8.05078 31.3702 8.62953L31.3781 8.63757L31.3861 8.64546C31.9649 9.21391 32.4128 9.90178 32.6985 10.6611L32.7034 10.674C32.9929 11.4182 33.2054 12.2954 33.2678 13.6592M15.3608 6.74874L25.9895 6.74875M15.3608 6.74874C16.594 6.69482 17.2756 6.68321 20.675 6.68321C24.0747 6.68321 24.7561 6.69482 25.9895 6.74875M15.3608 6.74874C15.2438 6.75385 15.1218 6.75935 14.992 6.76526C13.5067 6.83332 12.6379 7.08602 12.0228 7.32461C11.2502 7.61099 10.5511 8.06565 9.97592 8.65566C9.37081 9.26325 8.97475 9.87212 8.66208 10.679C8.4205 11.2969 8.16704 12.168 8.09871 13.659C8.09283 13.7883 8.08734 13.9099 8.08224 14.0266M33.2678 25.0239C33.2054 26.3876 32.9929 27.2652 32.7039 28.0101L32.6996 28.0215C32.4137 28.7806 31.9657 29.4683 31.387 30.0367L31.3789 30.0447L31.3709 30.0528C30.802 30.6323 30.1141 31.0798 29.3556 31.3649L29.3426 31.3699C28.5983 31.6594 27.7211 31.872 26.3574 31.9343M8.08221 24.6557C8.02829 23.4225 8.01668 22.741 8.01668 19.3415C8.01668 15.941 8.02828 15.2604 8.08224 14.0266M8.08221 24.6557L8.08224 14.0266M18.4207 24.784C19.1354 25.08 19.9014 25.2324 20.675 25.2324C22.2374 25.2324 23.7357 24.6118 24.8405 23.507C25.9452 22.4022 26.5659 20.9039 26.5659 19.3415C26.5659 17.7792 25.9452 16.2808 24.8405 15.176C23.7357 14.0713 22.2374 13.4506 20.675 13.4506C19.9014 13.4506 19.1354 13.603 18.4207 13.8991C17.7059 14.1951 17.0565 14.629 16.5095 15.176C15.9625 15.7231 15.5286 16.3725 15.2325 17.0872C14.9365 17.8019 14.7841 18.5679 14.7841 19.3415C14.7841 20.1151 14.9365 20.8812 15.2325 21.5959C15.5286 22.3106 15.9625 22.96 16.5095 23.507C17.0565 24.054 17.7059 24.4879 18.4207 24.784ZM16.4964 15.1629C17.6046 14.0547 19.1077 13.4321 20.675 13.4321C22.2423 13.4321 23.7454 14.0547 24.8536 15.1629C25.9618 16.2712 26.5844 17.7742 26.5844 19.3415C26.5844 20.9088 25.9618 22.4119 24.8536 23.5201C23.7454 24.6284 22.2423 25.251 20.675 25.251C19.1077 25.251 17.6046 24.6284 16.4964 23.5201C15.3882 22.4119 14.7656 20.9088 14.7656 19.3415C14.7656 17.7742 15.3882 16.2712 16.4964 15.1629ZM29.912 12.0562C29.912 12.5048 29.7338 12.935 29.4166 13.2522C29.0994 13.5694 28.6692 13.7476 28.2206 13.7476C27.772 13.7476 27.3418 13.5694 27.0246 13.2522C26.7074 12.935 26.5292 12.5048 26.5292 12.0562C26.5292 11.6076 26.7074 11.1774 27.0246 10.8602C27.3418 10.543 27.772 10.3648 28.2206 10.3648C28.6692 10.3648 29.0994 10.543 29.4166 10.8602C29.7338 11.1774 29.912 11.6076 29.912 12.0562Z" stroke="white" stroke-linejoin="round"/>
</svg>
