<svg width="28" height="28" viewBox="0 0 28 28" fill="none" xmlns="http://www.w3.org/2000/svg">
<path d="M19.8297 14C19.675 14 19.5266 13.9385 19.4172 13.8291C19.3078 13.7197 19.2464 13.5714 19.2464 13.4167V6.41667C19.2464 3.52158 16.8909 1.16667 13.9964 1.16667C11.1019 1.16667 8.74638 3.52158 8.74638 6.41667V13.4167C8.74638 13.5714 8.68492 13.7197 8.57552 13.8291C8.46613 13.9385 8.31775 14 8.16305 14C8.00834 14 7.85996 13.9385 7.75057 13.8291C7.64117 13.7197 7.57971 13.5714 7.57971 13.4167V6.41667C7.57971 2.87875 10.4585 0 13.9964 0C17.5343 0 20.413 2.87875 20.413 6.41667V13.4167C20.413 13.5714 20.3516 13.7197 20.2422 13.8291C20.1328 13.9385 19.9844 14 19.8297 14Z" fill="#2D2526"/>
<path d="M23.9167 28H4.08333C1.83167 28 0 26.1677 0 23.9167V16.3333C0 13.1168 2.61683 10.5 5.83333 10.5H22.1667C25.3832 10.5 28 13.1168 28 16.3333V23.9167C28 26.1677 26.1683 28 23.9167 28ZM5.83333 11.6667C3.26025 11.6667 1.16667 13.7603 1.16667 16.3333V23.9167C1.16667 25.5249 2.47508 26.8333 4.08333 26.8333H23.9167C25.5249 26.8333 26.8333 25.5249 26.8333 23.9167V16.3333C26.8333 13.7603 24.7397 11.6667 22.1667 11.6667H5.83333Z" fill="#0E0406"/>
<path d="M23.9167 28H4.08333C1.83167 28 0 26.1677 0 23.9167V16.3333C0 13.1168 2.61683 10.5 5.83333 10.5H22.1667C25.3832 10.5 28 13.1168 28 16.3333V23.9167C28 26.1677 26.1683 28 23.9167 28ZM5.83333 27.6667C3.26025 27.6667 1.16667 13.7602 1.16667 16.3333V23.9167C1.16667 25.5249 2.47508 26.8333 4.08333 26.8333H23.9167C25.5249 26.8333 26.8333 25.5249 26.8333 23.9167V16.3333C26.8333 13.7602 24.7397 27.6667 22.1667 27.6667H5.83333Z" fill="#3E3335"/>
<path d="M14.5227 17.435C15.058 17.523 15.5127 17.7613 15.8867 18.15C16.2607 18.5387 16.4477 19.0447 16.4477 19.668C16.4477 20.152 16.3267 20.581 16.0847 20.955C15.8427 21.329 15.52 21.6187 15.1167 21.824C14.7133 22.022 14.2733 22.121 13.7967 22.121C13.21 22.121 12.6967 21.978 12.2567 21.692C11.824 21.3987 11.4867 21.0173 11.2447 20.548L12.0587 19.976C12.2787 20.3133 12.5243 20.5773 12.7957 20.768C13.067 20.9587 13.3897 21.054 13.7637 21.054C14.1963 21.054 14.552 20.9293 14.8307 20.68C15.1093 20.4233 15.2487 20.0897 15.2487 19.679C15.2487 19.2683 15.102 18.953 14.8087 18.733C14.5227 18.513 14.112 18.403 13.5767 18.403H12.7737V18.084L14.4677 15.807H11.7617V14.74H16.2827V15.059L14.5227 17.435Z" fill="white"/>
</svg>
