<svg width="56" height="56" viewBox="0 0 56 56" fill="none" xmlns="http://www.w3.org/2000/svg">
<g clip-path="url(#clip0_201_40)">
<path d="M56 56H0V0H56V56ZM0.50239 55.4976H55.4961V0.50239H0.50239V55.4961V55.4976Z" fill="#691C32"/>
<path d="M10.257 34.2866H11.8061V34.6709H10.6727V35.5112H11.8061V35.8955H10.6727V37.2995H10.257V34.2866Z" fill="#691C32"/>
<path d="M13.6063 34.2687H13.8994L15.2032 37.298H14.7771L14.3898 36.4054H13.1503L12.7869 37.298H12.3593L13.6078 34.2687H13.6063ZM14.2179 36.0211L13.7484 34.9296L13.3133 36.0211H14.2179Z" fill="#691C32"/>
<path d="M15.4858 34.2821H17.914V34.6664H16.9003V37.2994H16.4816V34.6664H15.4843V34.2821H15.4858Z" fill="#691C32"/>
<path d="M18.6989 34.2821H21.1272V34.6664H20.1134V37.2994H19.6948V34.6664H18.6974V34.2821H18.6989Z" fill="#691C32"/>
<path d="M23.3087 34.2433C23.7573 34.2433 24.1311 34.3913 24.4301 34.6859C24.7292 34.9804 24.8787 35.3497 24.8787 35.7938C24.8787 36.2379 24.7277 36.6057 24.4257 36.8973C24.1251 37.1888 23.7438 37.3339 23.2863 37.3339C22.8288 37.3339 22.4834 37.1888 22.1918 36.8973C21.9003 36.6072 21.7537 36.2409 21.7537 35.8028C21.7537 35.3647 21.9003 34.9804 22.1948 34.6859C22.4879 34.3913 22.8602 34.2433 23.3087 34.2433ZM23.3252 34.653C22.9932 34.653 22.7196 34.7606 22.5058 34.9759C22.292 35.1913 22.1843 35.4664 22.1843 35.8013C22.1843 36.1362 22.292 36.3964 22.5073 36.6117C22.7226 36.827 22.9903 36.9347 23.3132 36.9347C23.6362 36.9347 23.9083 36.824 24.1251 36.6042C24.3419 36.3844 24.4496 36.1108 24.4496 35.7834C24.4496 35.4559 24.3419 35.1957 24.1251 34.9774C23.9083 34.7591 23.6422 34.65 23.3267 34.65L23.3252 34.653Z" fill="#691C32"/>
<path d="M28.3535 34.2687H28.6466L29.9489 37.298H29.5228L29.1355 36.4054H27.896L27.5327 37.298H27.105L28.3535 34.2687ZM28.9651 36.0211L28.4971 34.9296L28.062 36.0211H28.9651Z" fill="#691C32"/>
<path d="M35.0401 34.2866H35.4289V37.2995H35.0102V34.9565L34.1161 36.1212H34.0398L33.1352 34.9565V37.2995H32.7195V34.2866H33.1128L34.0787 35.5232L35.0386 34.2866H35.0401Z" fill="#691C32"/>
<path d="M37.6223 34.2687H37.9154L39.2192 37.298H38.7931L38.4058 36.4054H37.1663L36.8029 37.298H36.3753L37.6238 34.2687H37.6223ZM38.2338 36.0211L37.7643 34.9296L37.3292 36.0211H38.2338Z" fill="#691C32"/>
<path d="M42.4862 34.2866H42.881V37.2995H42.5236L40.5799 34.9804V37.2995H40.1881V34.2866H40.526L42.4862 36.6266V34.2866Z" fill="#691C32"/>
<path d="M45.5678 34.2433C46.0164 34.2433 46.3902 34.3913 46.6892 34.6859C46.9883 34.9804 47.1378 35.3497 47.1378 35.7938C47.1378 36.2379 46.9868 36.6057 46.6848 36.8973C46.3842 37.1888 46.0029 37.3339 45.5454 37.3339C45.0879 37.3339 44.7425 37.1888 44.4509 36.8973C44.1593 36.6072 44.0128 36.2409 44.0128 35.8028C44.0128 35.3647 44.1593 34.9804 44.4539 34.6859C44.747 34.3913 45.1193 34.2433 45.5678 34.2433ZM45.5843 34.653C45.2523 34.653 44.9787 34.7606 44.7649 34.9759C44.5511 35.1913 44.4434 35.4664 44.4434 35.8013C44.4434 36.1362 44.5511 36.3964 44.7664 36.6117C44.9817 36.827 45.2494 36.9347 45.5723 36.9347C45.8953 36.9347 46.1674 36.824 46.3842 36.6042C46.601 36.3844 46.7087 36.1108 46.7087 35.7834C46.7087 35.4559 46.601 35.1957 46.3842 34.9774C46.1674 34.7591 45.9013 34.65 45.5858 34.65L45.5843 34.653Z" fill="#691C32"/>
<path d="M14.0549 33.7737H13.7275L13.9787 33.2414H14.3061L14.0549 33.7737Z" fill="#691C32"/>
<path d="M43.2877 25.4738C45.1403 24.919 46.4905 23.204 46.4905 21.172C46.4905 18.6915 44.4794 16.6804 41.9989 16.6804H28.5076L28.4702 16.6535L20.5935 22.9304L12.6136 16.5578L10.0807 16.5548V30.0551H13.0307V21.0076L19.1431 25.6651H22.0409L30.0881 19.2328H41.9989C43.0709 19.2328 43.9397 20.1015 43.9397 21.1735C43.9397 22.2456 43.0709 23.1143 41.9989 23.1143H31.1646L29.786 24.2163V30.0551H32.7361V25.6651H40.4917L44.1086 30.0551H47.0587L43.2848 25.4752L43.2877 25.4738Z" fill="#691C32"/>
</g>
<defs>
<clipPath id="clip0_201_40">
<rect width="56" height="56" fill="white"/>
</clipPath>
</defs>
</svg>
