<svg width="96" height="96" viewBox="0 0 96 96" fill="none" xmlns="http://www.w3.org/2000/svg">
<path d="M96 96H0V0H96V96ZM0.861239 95.1387H95.1362V0.861239H0.861239V95.1362V95.1387Z" fill="white"/>
<path d="M17.5835 58.7766H20.239V59.4354H18.2961V60.8759H20.239V61.5346H18.2961V63.9415H17.5835V58.7766Z" fill="white"/>
<path d="M23.3251 58.7468H23.8275L26.0626 63.9399H25.3321L24.6682 62.4097H22.5433L21.9205 63.9399H21.1874L23.3277 58.7468H23.3251ZM24.3735 61.7509L23.5686 59.8798L22.8227 61.7509H24.3735Z" fill="white"/>
<path d="M26.547 58.7698H30.7097V59.4285H28.9718V63.9423H28.2541V59.4285H26.5445V58.7698H26.547Z" fill="white"/>
<path d="M32.0553 58.7698H36.218V59.4285H34.4802V63.9423H33.7625V59.4285H32.0528V58.7698H32.0553Z" fill="white"/>
<path d="M39.9578 58.7029C40.7267 58.7029 41.3675 58.9566 41.8802 59.4616C42.3928 59.9666 42.6491 60.5997 42.6491 61.3609C42.6491 62.1222 42.3903 62.7528 41.8725 63.2526C41.3573 63.7524 40.7037 64.001 39.9193 64.001C39.135 64.001 38.5429 63.7524 38.0431 63.2526C37.5432 62.7553 37.292 62.1273 37.292 61.3763C37.292 60.6253 37.5432 59.9666 38.0482 59.4616C38.5506 58.9566 39.1888 58.7029 39.9578 58.7029ZM39.986 59.4052C39.4169 59.4052 38.9479 59.5898 38.5813 59.9589C38.2148 60.328 38.0302 60.7996 38.0302 61.3738C38.0302 61.9479 38.2148 62.3939 38.5839 62.763C38.953 63.1321 39.4118 63.3167 39.9655 63.3167C40.5191 63.3167 40.9856 63.127 41.3573 62.7502C41.729 62.3734 41.9135 61.9043 41.9135 61.343C41.9135 60.7817 41.729 60.3356 41.3573 59.9614C40.9856 59.5872 40.5294 59.4001 39.9885 59.4001L39.986 59.4052Z" fill="white"/>
<path d="M48.6061 58.7468H49.1084L51.341 63.9399H50.6105L49.9466 62.4097H47.8217L47.1989 63.9399H46.4658L48.6061 58.7468ZM49.6544 61.7509L48.8521 59.8798L48.1062 61.7509H49.6544Z" fill="white"/>
<path d="M60.0687 58.7766H60.7352V63.9415H60.0175V59.9249L58.4847 61.9217H58.354L56.8032 59.9249V63.9415H56.0906V58.7766H56.7648L58.4206 60.8964L60.0662 58.7766H60.0687Z" fill="white"/>
<path d="M64.4954 58.7468H64.9978L67.2329 63.9399H66.5024L65.8385 62.4097H63.7136L63.0908 63.9399H62.3577L64.498 58.7468H64.4954ZM65.5438 61.7509L64.7389 59.8798L63.993 61.7509H65.5438Z" fill="white"/>
<path d="M72.8335 58.7766H73.5102V63.9415H72.8976L69.5654 59.9659V63.9415H68.8939V58.7766H69.4732L72.8335 62.788V58.7766Z" fill="white"/>
<path d="M78.1163 58.7029C78.8852 58.7029 79.5261 58.9566 80.0387 59.4616C80.5513 59.9666 80.8077 60.5997 80.8077 61.3609C80.8077 62.1222 80.5488 62.7528 80.031 63.2526C79.5158 63.7524 78.8622 64.001 78.0778 64.001C77.2935 64.001 76.7014 63.7524 76.2016 63.2526C75.7017 62.7553 75.4505 62.1273 75.4505 61.3763C75.4505 60.6253 75.7017 59.9666 76.2067 59.4616C76.7091 58.9566 77.3473 58.7029 78.1163 58.7029ZM78.1445 59.4052C77.5755 59.4052 77.1064 59.5898 76.7398 59.9589C76.3733 60.328 76.1888 60.7996 76.1888 61.3738C76.1888 61.9479 76.3733 62.3939 76.7424 62.763C77.1115 63.1321 77.5703 63.3167 78.124 63.3167C78.6776 63.3167 79.1441 63.127 79.5158 62.7502C79.8875 62.3734 80.072 61.9043 80.072 61.343C80.072 60.7817 79.8875 60.3356 79.5158 59.9614C79.1441 59.5872 78.6879 59.4001 78.147 59.4001L78.1445 59.4052Z" fill="white"/>
<path d="M24.0941 57.8976H23.5328L23.9634 56.9851H24.5247L24.0941 57.8976Z" fill="white"/>
<path d="M74.2076 43.6692C77.3834 42.7183 79.698 39.7782 79.698 36.2948C79.698 32.0425 76.2504 28.5949 71.9981 28.5949H48.8702L48.8061 28.5488L35.3031 39.3092L21.6233 28.3848L17.2812 28.3796V51.5229H22.3384V36.0129L32.8168 43.9973H37.7843L51.5795 32.9704H71.9981C73.8359 32.9704 75.3251 34.4596 75.3251 36.2974C75.3251 38.1352 73.8359 39.6244 71.9981 39.6244H53.425L51.0618 41.5135V51.5229H56.119V43.9973H69.4144L75.6148 51.5229H80.672L74.2024 43.6718L74.2076 43.6692Z" fill="white"/>
</svg>
